<svg xmlns="http://www.w3.org/2000/svg" xmlns:xlink="http://www.w3.org/1999/xlink" contentStyleType="text/css" data-diagram-type="DESCRIPTION" height="790px" preserveAspectRatio="none" style="width:782px;height:790px;background:#FFFFFF;" version="1.1" viewBox="0 0 782 790" width="782px" zoomAndPan="magnify"><title>Invox System Architecture</title><defs/><g><text fill="#000000" font-family="sans-serif" font-size="14" font-weight="bold" lengthAdjust="spacing" textLength="209.3643" x="279.3885" y="22.9951">Invox System Architecture</text><!--cluster Frontend--><g class="cluster" data-entity="Frontend" data-source-line="10" data-uid="ent0002" id="cluster_Frontend"><path d="M101,43.2969 L171.2285,43.2969 A6,6 0 0 1 175.2285,47.2969 L182.2285,65.5938 L480,65.5938 A4,4 0 0 1 484,69.5938 L484,136.2969 A4,4 0 0 1 480,140.2969 L101,140.2969 A4,4 0 0 1 97,136.2969 L97,47.2969 A4,4 0 0 1 101,43.2969" fill="#E0F2FE" style="stroke:#2563EB;stroke-width:1.5;"/><line style="stroke:#2563EB;stroke-width:1.5;" x1="97" x2="182.2285" y1="65.5938" y2="65.5938"/><text fill="#000000" font-family="sans-serif" font-size="14" font-weight="bold" lengthAdjust="spacing" textLength="72.2285" x="101" y="58.292">Frontend</text></g><!--cluster Backend--><g class="cluster" data-entity="Backend" data-source-line="15" data-uid="ent0005" id="cluster_Backend"><path d="M10,189.2969 L75.2109,189.2969 A6,6 0 0 1 79.2109,193.2969 L86.2109,211.5938 L402,211.5938 A4,4 0 0 1 406,215.5938 L406,764.2969 A4,4 0 0 1 402,768.2969 L10,768.2969 A4,4 0 0 1 6,764.2969 L6,193.2969 A4,4 0 0 1 10,189.2969" fill="#FFF8E1" style="stroke:#2563EB;stroke-width:1.5;"/><line style="stroke:#2563EB;stroke-width:1.5;" x1="6" x2="86.2109" y1="211.5938" y2="211.5938"/><text fill="#000000" font-family="sans-serif" font-size="14" font-weight="bold" lengthAdjust="spacing" textLength="67.2109" x="10" y="204.292">Backend</text></g><!--cluster External APIs--><g class="cluster" data-entity="External APIs" data-source-line="22" data-uid="ent0010" id="cluster_External APIs"><path d="M441.2713,679.7655 C446.7,670.3238 455.513,669.9509 461.7859,678.8198 C468.6594,666.2243 479.0486,667.2817 485.7605,678.9791 C492.621,671.6046 500.0516,669.575 505.3379,680.6495 C512.1976,669.0845 522.4456,668.8831 530.6102,679.1382 C536.3982,669.3012 546.6681,669.5083 552.333,679.2746 C557.4751,670.2934 565.7558,669.4183 572.4595,677.4245 C579.2139,667.2054 589.458,668.5288 595.03,678.7313 C601.8157,669.2223 611.5962,667.9762 618.1727,678.9675 C624.7689,668.1528 636.7674,665.92 642.8327,679.504 C649.7907,670.9162 655.996,671.6047 661.8869,680.6566 C668.3864,668.171 676.9453,668.0752 685.2992,678.7849 C693.5653,666.2386 701.89,666.5315 709.0758,679.7806 C716.9116,667.7975 726.0548,668.5781 732.2009,681.3586 C737.9844,671.2145 743.9676,671.1978 751.3878,679.6719 C762.8187,681.8645 766.5171,690.1547 759.293,699.7077 C773.4764,705.1764 775.1412,714.3393 763.0237,723.8691 C769.2249,732.5128 767.9343,739.625 756.2997,741.4453 C765.9976,749.2499 766.6387,757.1849 754.8775,763.6127 C749.2283,774.0434 739.4661,774.3706 732.6641,764.8995 C726.2572,778.3506 715.4485,776.5639 707.2322,766.8893 C700.6945,775.4816 693.1652,774.821 687.4735,765.933 C679.7803,776.3596 671.2524,778.6542 663.6312,765.8591 C659.4608,777.4345 649.9902,778.3208 642.6845,769.0025 C634.686,780.7831 626.3894,781.0096 617.7125,769.7374 C611.3327,780.6763 603.128,779.7992 596.2822,770.2244 C588.8372,783.1678 580.8495,781.7113 572.3083,771.3522 C565.033,780.3854 558.0574,780.7996 551.7297,770.3512 C544.5984,777.7741 535.1356,776.7849 531.2496,766.5807 C524.5444,778.6378 515.5549,778.633 507.6869,767.7763 C499.8161,777.3143 488.6757,776.1687 483.949,764.2912 C476.249,774.4443 469.2082,771.0775 463.8699,761.845 C455.346,775.0031 445.405,771.7597 438.2788,760.3869 C428.1933,757.4755 426.3648,748.03 434.2773,741.3378 C423.4658,738.2217 420.6709,731.4688 428.0969,722.4006 C418.2179,711.9646 423.014,704.7157 434.5267,700.5846 C426.4928,691.1464 429.7904,682.8816 441.2713,679.7655" fill="#E1F5FE" style="stroke:#2563EB;stroke-width:1;"/><text fill="#000000" font-family="sans-serif" font-size="14" font-weight="bold" lengthAdjust="spacing" textLength="105.4102" x="541.7949" y="697.292">External APIs</text></g><!--cluster Storage--><g class="cluster" data-entity="Storage" data-source-line="27" data-uid="ent0013" id="cluster_Storage"><path d="M434,333.2969 L494.2617,333.2969 A6,6 0 0 1 498.2617,337.2969 L505.2617,355.5938 L647,355.5938 A4,4 0 0 1 651,359.5938 L651,425.2969 A4,4 0 0 1 647,429.2969 L434,429.2969 A4,4 0 0 1 430,425.2969 L430,337.2969 A4,4 0 0 1 434,333.2969" fill="#F1F8E9" style="stroke:#2563EB;stroke-width:1.5;"/><line style="stroke:#2563EB;stroke-width:1.5;" x1="430" x2="505.2617" y1="355.5938" y2="355.5938"/><text fill="#000000" font-family="sans-serif" font-size="14" font-weight="bold" lengthAdjust="spacing" textLength="62.2617" x="434" y="348.292">Storage</text></g><!--entity web--><g class="entity" data-entity="web" data-source-line="11" data-uid="ent0003" id="entity_web"><rect fill="#BBDEFB" height="46.2969" rx="4" ry="4" style="stroke:#3B82F6;stroke-width:0.5;" width="154.0166" x="113" y="78.2969"/><rect fill="#BBDEFB" height="10" style="stroke:#3B82F6;stroke-width:0.5;" width="15" x="247.0166" y="83.2969"/><rect fill="#BBDEFB" height="2" style="stroke:#3B82F6;stroke-width:0.5;" width="4" x="245.0166" y="85.2969"/><rect fill="#BBDEFB" height="2" style="stroke:#3B82F6;stroke-width:0.5;" width="4" x="245.0166" y="89.2969"/><text fill="#000000" font-family="sans-serif" font-size="14" lengthAdjust="spacing" textLength="114.0166" x="128" y="111.292">Web Application</text></g><!--entity admin--><g class="entity" data-entity="admin" data-source-line="12" data-uid="ent0004" id="entity_admin"><rect fill="#C8E6C9" height="46.2969" rx="4" ry="4" style="stroke:#3B82F6;stroke-width:0.5;" width="165.5146" x="302" y="78.2969"/><rect fill="#C8E6C9" height="10" style="stroke:#3B82F6;stroke-width:0.5;" width="15" x="447.5146" y="83.2969"/><rect fill="#C8E6C9" height="2" style="stroke:#3B82F6;stroke-width:0.5;" width="4" x="445.5146" y="85.2969"/><rect fill="#C8E6C9" height="2" style="stroke:#3B82F6;stroke-width:0.5;" width="4" x="445.5146" y="89.2969"/><text fill="#000000" font-family="sans-serif" font-size="14" lengthAdjust="spacing" textLength="125.5146" x="317" y="111.292">Admin Dashboard</text></g><!--entity api--><g class="entity" data-entity="api" data-source-line="16" data-uid="ent0006" id="entity_api"><rect fill="#FFCC02" height="46.2969" rx="4" ry="4" style="stroke:#3B82F6;stroke-width:0.5;" width="128.4434" x="238" y="224.2969"/><rect fill="#FFCC02" height="10" style="stroke:#3B82F6;stroke-width:0.5;" width="15" x="346.4434" y="229.2969"/><rect fill="#FFCC02" height="2" style="stroke:#3B82F6;stroke-width:0.5;" width="4" x="344.4434" y="231.2969"/><rect fill="#FFCC02" height="2" style="stroke:#3B82F6;stroke-width:0.5;" width="4" x="344.4434" y="235.2969"/><text fill="#000000" font-family="sans-serif" font-size="14" lengthAdjust="spacing" textLength="88.4434" x="253" y="257.292">API Gateway</text></g><!--entity audio--><g class="entity" data-entity="audio" data-source-line="17" data-uid="ent0007" id="entity_audio"><rect fill="#F8BBD9" height="46.2969" rx="4" ry="4" style="stroke:#3B82F6;stroke-width:0.5;" width="152.2256" x="238" y="367.7969"/><rect fill="#F8BBD9" height="10" style="stroke:#3B82F6;stroke-width:0.5;" width="15" x="370.2256" y="372.7969"/><rect fill="#F8BBD9" height="2" style="stroke:#3B82F6;stroke-width:0.5;" width="4" x="368.2256" y="374.7969"/><rect fill="#F8BBD9" height="2" style="stroke:#3B82F6;stroke-width:0.5;" width="4" x="368.2256" y="378.7969"/><text fill="#000000" font-family="sans-serif" font-size="14" lengthAdjust="spacing" textLength="112.2256" x="253" y="400.792">Audio Processor</text></g><!--entity forms--><g class="entity" data-entity="forms" data-source-line="18" data-uid="ent0008" id="entity_forms"><rect fill="#C8E6C9" height="46.2969" rx="4" ry="4" style="stroke:#3B82F6;stroke-width:0.5;" width="128.4434" x="143" y="706.2969"/><rect fill="#C8E6C9" height="10" style="stroke:#3B82F6;stroke-width:0.5;" width="15" x="251.4434" y="711.2969"/><rect fill="#C8E6C9" height="2" style="stroke:#3B82F6;stroke-width:0.5;" width="4" x="249.4434" y="713.2969"/><rect fill="#C8E6C9" height="2" style="stroke:#3B82F6;stroke-width:0.5;" width="4" x="249.4434" y="717.2969"/><text fill="#000000" font-family="sans-serif" font-size="14" lengthAdjust="spacing" textLength="88.4434" x="158" y="739.292">Form Engine</text></g><!--entity orchestrator--><g class="entity" data-entity="orchestrator" data-source-line="19" data-uid="ent0009" id="entity_orchestrator"><rect fill="#FFCDD2" height="46.2969" rx="4" ry="4" style="stroke:#3B82F6;stroke-width:0.5;" width="147.0439" x="239.5" y="527.2969"/><rect fill="#FFCDD2" height="10" style="stroke:#3B82F6;stroke-width:0.5;" width="15" x="366.5439" y="532.2969"/><rect fill="#FFCDD2" height="2" style="stroke:#3B82F6;stroke-width:0.5;" width="4" x="364.5439" y="534.2969"/><rect fill="#FFCDD2" height="2" style="stroke:#3B82F6;stroke-width:0.5;" width="4" x="364.5439" y="538.2969"/><text fill="#000000" font-family="sans-serif" font-size="14" lengthAdjust="spacing" textLength="107.0439" x="254.5" y="560.292">AI Orchestrator</text></g><!--entity llms--><g class="entity" data-entity="llms" data-source-line="23" data-uid="ent0011" id="entity_llms"><rect fill="#B3E5FC" height="46.2969" rx="4" ry="4" style="stroke:#3B82F6;stroke-width:0.5;" width="107.4844" x="445.5" y="706.2969"/><rect fill="#B3E5FC" height="10" style="stroke:#3B82F6;stroke-width:0.5;" width="15" x="532.9844" y="711.2969"/><rect fill="#B3E5FC" height="2" style="stroke:#3B82F6;stroke-width:0.5;" width="4" x="530.9844" y="713.2969"/><rect fill="#B3E5FC" height="2" style="stroke:#3B82F6;stroke-width:0.5;" width="4" x="530.9844" y="717.2969"/><text fill="#000000" font-family="sans-serif" font-size="14" lengthAdjust="spacing" textLength="67.4844" x="460.5" y="739.292">AI Models</text></g><!--entity speech--><g class="entity" data-entity="speech" data-source-line="24" data-uid="ent0012" id="entity_speech"><rect fill="#C5E1A5" height="46.2969" rx="4" ry="4" style="stroke:#3B82F6;stroke-width:0.5;" width="155.0557" x="587.5" y="706.2969"/><rect fill="#C5E1A5" height="10" style="stroke:#3B82F6;stroke-width:0.5;" width="15" x="722.5557" y="711.2969"/><rect fill="#C5E1A5" height="2" style="stroke:#3B82F6;stroke-width:0.5;" width="4" x="720.5557" y="713.2969"/><rect fill="#C5E1A5" height="2" style="stroke:#3B82F6;stroke-width:0.5;" width="4" x="720.5557" y="717.2969"/><text fill="#000000" font-family="sans-serif" font-size="14" lengthAdjust="spacing" textLength="115.0557" x="602.5" y="739.292">Speech Services</text></g><!--entity postgres--><g class="entity" data-entity="postgres" data-source-line="28" data-uid="ent0014" id="entity_postgres"><path d="M533.5,378.2969 C533.5,368.2969 583.8765,368.2969 583.8765,368.2969 C583.8765,368.2969 634.2529,368.2969 634.2529,378.2969 L634.2529,403.5938 C634.2529,413.5938 583.8765,413.5938 583.8765,413.5938 C583.8765,413.5938 533.5,413.5938 533.5,403.5938 L533.5,378.2969" fill="#81C784" style="stroke:#181818;stroke-width:0.5;"/><path d="M533.5,378.2969 C533.5,388.2969 583.8765,388.2969 583.8765,388.2969 C583.8765,388.2969 634.2529,388.2969 634.2529,378.2969" fill="none" style="stroke:#181818;stroke-width:0.5;"/><text fill="#000000" font-family="sans-serif" font-size="14" lengthAdjust="spacing" textLength="80.7529" x="543.5" y="405.292">PostgreSQL</text></g><!--entity s3--><g class="entity" data-entity="s3" data-source-line="29" data-uid="ent0015" id="entity_s3"><rect fill="#FF9800" height="36.2969" rx="35" ry="35" style="stroke:#181818;stroke-width:0.5;" width="51.7393" x="446" y="372.7969"/><text fill="#000000" font-family="sans-serif" font-size="14" lengthAdjust="spacing" textLength="31.7393" x="456" y="395.792">Files</text></g><g class="entity" data-entity="GMN29" data-source-line="52" data-uid="ent0030" id="entity_GMN29"><path d="M421.5,496.2969 L421.5,546.2969 L386.63,550.2969 L421.5,554.2969 L421.5,604.2266 A4,4 0 0 0 425.5,608.2266 L566.5068,608.2266 A4,4 0 0 0 570.5068,604.2266 L570.5068,502.2969 L560.5068,492.2969 L425.5,492.2969 A4,4 0 0 0 421.5,496.2969" fill="#FEFFDD" style="stroke:#181818;stroke-width:0.5;"/><path d="M560.5068,492.2969 L560.5068,500.2969 A2,2 0 0 0 562.5068,502.2969 L570.5068,502.2969 L560.5068,492.2969" fill="#FEFFDD" style="stroke:#181818;stroke-width:0.5;"/><text fill="#000000" font-family="sans-serif" font-size="13" lengthAdjust="spacing" textLength="91.1714" x="427.5" y="509.3638">AI Processing:</text><text fill="#000000" font-family="sans-serif" font-size="13" lengthAdjust="spacing" textLength="127.3086" x="427.5" y="524.4966">- Receive transcript</text><text fill="#000000" font-family="sans-serif" font-size="13" lengthAdjust="spacing" textLength="113.4072" x="427.5" y="539.6294">- Analyze context</text><text fill="#000000" font-family="sans-serif" font-size="13" lengthAdjust="spacing" textLength="111.0142" x="427.5" y="554.7622">- Select best LLM</text><text fill="#000000" font-family="sans-serif" font-size="13" lengthAdjust="spacing" textLength="128.0068" x="427.5" y="569.895">- Generate prompts</text><text fill="#000000" font-family="sans-serif" font-size="13" lengthAdjust="spacing" textLength="95.5449" x="427.5" y="585.0278">- Verify quality</text><text fill="#000000" font-family="sans-serif" font-size="13" lengthAdjust="spacing" textLength="100.7437" x="427.5" y="600.1606">- Return results</text></g><!--link web to api--><g class="link" data-entity-1="web" data-entity-2="api" data-source-line="32" data-uid="lnk16" id="link_web_api"><path d="M227.74,124.5269 C240.17,133.2369 253.29,144.0769 263,156.2969 C279.21,176.6969 288.183,199.1292 294.223,218.4892" fill="none" id="web-to-api" style="stroke:#374151;stroke-width:1;"/><polygon fill="#374151" points="296.01,224.2169,297.148,214.434,294.5209,219.4438,289.5111,216.8166,296.01,224.2169" style="stroke:#374151;stroke-width:1;"/><text fill="#000000" font-family="sans-serif" font-size="13" lengthAdjust="spacing" textLength="41.7485" x="274" y="169.3638">HTTPS</text></g><!--link web to api--><g class="link" data-entity-1="web" data-entity-2="api" data-source-line="49" data-uid="lnk28" id="link_web_api"><path d="M180.07,124.4469 C175.04,139.1669 171.59,158.4569 180,173.2969 C193.03,196.2669 211.1144,210.1117 233.9944,221.5617" fill="none" id="web-to-api-1" style="stroke:#374151;stroke-width:1;stroke-dasharray:7.0,7.0;"/><polygon fill="#374151" points="239.36,224.2469,233.1017,216.6421,234.8886,222.0092,229.5215,223.7962,239.36,224.2469" style="stroke:#374151;stroke-width:1;"/><text fill="#000000" font-family="sans-serif" font-size="13" lengthAdjust="spacing" textLength="73.0806" x="181" y="169.3638">WebSocket</text></g><!--link admin to api--><g class="link" data-entity-1="admin" data-entity-2="api" data-source-line="33" data-uid="lnk17" id="link_admin_api"><path d="M373.11,124.4869 C365.49,138.5569 355.33,157.0869 346,173.2969 C336.11,190.4769 327.6529,204.5597 318.8429,218.9497" fill="none" id="admin-to-api" style="stroke:#374151;stroke-width:1;"/><polygon fill="#374151" points="315.71,224.0669,323.8207,218.4797,318.3207,219.8026,316.9979,214.3026,315.71,224.0669" style="stroke:#374151;stroke-width:1;"/><text fill="#000000" font-family="sans-serif" font-size="13" lengthAdjust="spacing" textLength="66.3584" x="355" y="169.3638">Admin API</text></g><!--link api to audio--><g class="link" data-entity-1="api" data-entity-2="audio" data-source-line="35" data-uid="lnk18" id="link_api_audio"><path d="M303.88,270.4069 C306.12,296.8369 309.3437,334.8283 311.5937,361.3983" fill="none" id="api-to-audio" style="stroke:#374151;stroke-width:1;"/><polygon fill="#374151" points="312.1,367.3769,315.3263,358.0715,311.6781,362.3947,307.3548,358.7465,312.1,367.3769" style="stroke:#374151;stroke-width:1;"/><text fill="#000000" font-family="sans-serif" font-size="13" lengthAdjust="spacing" textLength="86.6328" x="308" y="313.3638">Upload Audio</text></g><!--link api to forms--><g class="link" data-entity-1="api" data-entity-2="forms" data-source-line="36" data-uid="lnk19" id="link_api_forms"><path d="M237.72,258.1069 C199.28,265.8069 150.42,278.8969 111,300.2969 C49.55,333.6569 59.35,376.0069 50,445.2969 C35.34,553.8769 129.737,657.1387 177.637,702.1387" fill="none" id="api-to-forms" style="stroke:#374151;stroke-width:1;"/><polygon fill="#374151" points="182.01,706.2469,178.1894,697.1693,178.3659,702.8234,172.7118,702.9999,182.01,706.2469" style="stroke:#374151;stroke-width:1;"/><text fill="#000000" font-family="sans-serif" font-size="13" lengthAdjust="spacing" textLength="68.6118" x="51" y="458.3638">Form Data</text></g><!--link api to orchestrator--><g class="link" data-entity-1="api" data-entity-2="orchestrator" data-source-line="37" data-uid="lnk20" id="link_api_orchestrator"><path d="M237.93,255.8469 C194.44,264.6769 139.94,283.8269 112,325.2969 C84.19,366.5769 85.83,394.9569 112,437.2969 C116.18,444.0569 120.98,441.5669 128,445.2969 C179.42,472.5869 232.6413,502.8112 269.8313,524.2412" fill="none" id="api-to-orchestrator" style="stroke:#374151;stroke-width:1;"/><polygon fill="#374151" points="275.03,527.2369,269.2291,519.2776,270.6978,524.7405,265.2349,526.2092,275.03,527.2369" style="stroke:#374151;stroke-width:1;"/><text fill="#000000" font-family="sans-serif" font-size="13" lengthAdjust="spacing" textLength="107.3516" x="113" y="395.3638">Process Request</text></g><!--link audio to speech--><g class="link" data-entity-1="audio" data-entity-2="speech" data-source-line="39" data-uid="lnk21" id="link_audio_speech"><path d="M369,413.8769 C388.24,421.4669 410.02,429.9069 430,437.2969 C499.73,463.0969 535.94,439.2069 588,492.2969 C647.44,552.9169 660.599,654.0103 663.689,700.1403" fill="none" id="audio-to-speech" style="stroke:#374151;stroke-width:1;"/><polygon fill="#374151" points="664.09,706.1269,667.4795,696.8797,663.7558,701.1381,659.4974,697.4143,664.09,706.1269" style="stroke:#374151;stroke-width:1;"/><text fill="#000000" font-family="sans-serif" font-size="13" lengthAdjust="spacing" textLength="68.6182" x="648" y="554.8638">Transcribe</text></g><!--link audio to orchestrator--><g class="link" data-entity-1="audio" data-entity-2="orchestrator" data-source-line="40" data-uid="lnk22" id="link_audio_orchestrator"><path d="M313.86,414.0269 C313.67,444.0469 313.368,491.217 313.178,521.177" fill="none" id="audio-to-orchestrator" style="stroke:#374151;stroke-width:1;"/><polygon fill="#374151" points="313.14,527.1769,317.197,518.2024,313.1717,522.177,309.1972,518.1517,313.14,527.1769" style="stroke:#374151;stroke-width:1;"/><text fill="#000000" font-family="sans-serif" font-size="13" lengthAdjust="spacing" textLength="65.603" x="314" y="458.3638">Send Text</text></g><!--link forms to orchestrator--><g class="link" data-entity-1="forms" data-entity-2="orchestrator" data-source-line="42" data-uid="lnk23" id="link_forms_orchestrator"><path d="M200.73,706.0269 C196.65,687.0569 193.76,659.5669 204,638.2969 C217.6,610.0469 240.2158,591.2546 264.3058,576.4746" fill="none" id="forms-to-orchestrator" style="stroke:#374151;stroke-width:1;"/><polygon fill="#374151" points="269.42,573.3369,259.6569,574.634,265.1582,575.9516,263.8405,581.4529,269.42,573.3369" style="stroke:#374151;stroke-width:1;"/><text fill="#000000" font-family="sans-serif" font-size="13" lengthAdjust="spacing" textLength="64.9175" x="205" y="651.3638">Questions</text></g><!--link orchestrator to forms--><g class="link" data-entity-1="orchestrator" data-entity-2="forms" data-source-line="44" data-uid="lnk25" id="link_orchestrator_forms"><path d="M307.36,573.5269 C301.2,595.3769 290.04,629.1669 274,655.2969 C262.39,674.2069 249.7662,688.4085 235.8262,701.9985" fill="none" id="orchestrator-to-forms" style="stroke:#374151;stroke-width:1;"/><polygon fill="#374151" points="231.53,706.1869,240.7666,702.7685,235.1102,702.6966,235.1821,697.0402,231.53,706.1869" style="stroke:#374151;stroke-width:1;"/><text fill="#000000" font-family="sans-serif" font-size="13" lengthAdjust="spacing" textLength="63.0195" x="283" y="651.3638">Response</text></g><!--link orchestrator to llms--><g class="link" data-entity-1="orchestrator" data-entity-2="llms" data-source-line="43" data-uid="lnk24" id="link_orchestrator_llms"><path d="M336.18,573.3569 C371.92,607.3669 435.7335,668.0907 471.4735,702.1007" fill="none" id="orchestrator-to-llms" style="stroke:#374151;stroke-width:1;"/><polygon fill="#374151" points="475.82,706.2369,472.0576,697.135,472.1979,702.7901,466.5428,702.9304,475.82,706.2369" style="stroke:#374151;stroke-width:1;"/><text fill="#000000" font-family="sans-serif" font-size="13" lengthAdjust="spacing" textLength="70.7827" x="418" y="651.3638">AI Prompts</text></g><!--link api to postgres--><g class="link" data-entity-1="api" data-entity-2="postgres" data-source-line="46" data-uid="lnk26" id="link_api_postgres"><path d="M366.47,262.9969 C410.94,275.1069 470.09,295.2269 516,325.2969 C534.38,337.3369 548.1724,350.2334 560.9924,363.8834" fill="none" id="api-to-postgres" style="stroke:#374151;stroke-width:1;"/><polygon fill="#374151" points="565.1,368.2569,561.8543,358.9582,561.677,364.6123,556.0229,364.435,565.1,368.2569" style="stroke:#374151;stroke-width:1;"/><text fill="#000000" font-family="sans-serif" font-size="13" lengthAdjust="spacing" textLength="69.8179" x="501" y="313.3638">Store Data</text></g><!--link api to s3--><g class="link" data-entity-1="api" data-entity-2="s3" data-source-line="47" data-uid="lnk27" id="link_api_s3"><path d="M355.56,270.4169 C371.73,278.4769 388.91,288.5569 403,300.2969 C428.17,321.2769 446.7059,347.8628 458.7559,367.3628" fill="none" id="api-to-s3" style="stroke:#374151;stroke-width:1;"/><polygon fill="#374151" points="461.91,372.4669,460.5816,362.708,459.2816,368.2135,453.7762,366.9134,461.91,372.4669" style="stroke:#374151;stroke-width:1;"/><text fill="#000000" font-family="sans-serif" font-size="13" lengthAdjust="spacing" textLength="29.4722" x="419" y="313.3638">Files</text></g><!--SRC=[RLHDRnen4BtlhnZ1cOY5a2uSAf7ceqY9IhAqFLGzUBrZi6BiZMq2jEf_xzW6kbIvhMVUlddpncFt8dN3B5j3nVZBqfgDhZyPPIniLz9ZvaxvGyfgj52qucx5QhELUWc2ATV-eo56jiHhOskqYRGx65qDiMg1k5atHgFsPx1XLGp4LGl6h3NRO_B3PJxAiynBhn1c-itieDmxZskOMXvaSx-nc6K70T2viqPxr7K7kjWN0u7mEmFuyHqhc3QDafnvQVHFO0ws5EjMLOsY2f1flPOQRfXRLORPEa9OZ7LvWLTydFrfrRccZrH6255WdifCvpEuPnwtR9_-RsG0SDuVnFIcbWRcrd1qpjW4YR6kA4Z9E83kZ5t3hLvAZH4WwEnE6WBB3BvGy-YyPVx0Obg1MB6k1q4lLsPJG-Tsvz5gfe04kc1DBaP7QuZkqTIeN2HIAXIhXZWIF6JB1f6le4Jx9abrnBWKw_8HvcnqPaj9zUaZs9AJBUDOecQULSnHUcwSNreidnuwWQX9HofOvFn3SKbObmXea5AXYoWt31sDYtu_b0fJw_K-Hcidy7cnc9TP6jE_Q1ebzPfb8H0JqUO9V6sKOJN4IPoIoU89HEjlIEqfS-Rhv3WwUCRN3OM9Fj86vC6K2ImiquvRMM4h-nzFILS75hWZXbJx7SnJg41trMLdYO2CGw8sPq7Gkl7lG8ujFQEZfQDbFRLqCfra41hF6oQpoOVWVRBwuk9eAgrGQUZIasPjF8ALovK78yvqPqbJC8dUYKdM8m4SvHk2FzZIU0fEwIxkVo4z2RIiEmz0iH8LRJDKH0KF3uyKkKTwWMYRe3bqsODlQANOm-k6AUdtaPuU00tKpqOH8lWQrFq5]--></g></svg>