<svg xmlns="http://www.w3.org/2000/svg" xmlns:xlink="http://www.w3.org/1999/xlink" contentStyleType="text/css" data-diagram-type="CLASS" height="1245px" preserveAspectRatio="none" style="width:1041px;height:1245px;background:#F8F9FA;" version="1.1" viewBox="0 0 1041 1245" width="1041px" zoomAndPan="magnify"><title>Invox - Database Schema</title><defs/><g><rect fill="#F8F9FA" height="1245" style="stroke:none;stroke-width:1;" width="1041" x="0" y="0"/><text fill="#000000" font-family="sans-serif" font-size="14" font-weight="bold" lengthAdjust="spacing" textLength="199.7666" x="413.6265" y="22.9951">Invox - Database Schema</text><!--class users--><g class="entity" data-entity="users" data-source-line="22" data-uid="ent0002" id="entity_users"><rect fill="#F1F1F1" height="210.9688" rx="2.5" ry="2.5" style="stroke:#181818;stroke-width:0.5;" width="239.083" x="296.5" y="172.2969"/><ellipse cx="392.8765" cy="188.2969" fill="#E3F2FD" rx="11" ry="11" style="stroke:#181818;stroke-width:1;"/><path d="M393.7202,195.0469 L391.2671,195.0469 L391.2671,184.7969 L388.1265,184.7969 L388.1265,182.6563 L396.8608,182.6563 L396.8608,184.7969 L393.7202,184.7969 L393.7202,195.0469 Z " fill="#000000"/><text fill="#000000" font-family="sans-serif" font-size="14" lengthAdjust="spacing" textLength="37.8301" x="413.3765" y="193.1436">users</text><line style="stroke:#181818;stroke-width:0.5;" x1="297.5" x2="534.583" y1="204.2969" y2="204.2969"/><path d="M309.9167,211.7604 C308.3067,211.7604 307,213.0671 307,214.6771 C307,214.8637 307,215.0504 307.035,215.2254 L303.5,218.7604 L303.5,221.0938 L307,221.0938 L307,218.7604 L309.3333,218.7604 L309.3333,217.5938 L309.3683,217.5588 C309.5433,217.5938 309.73,217.5938 309.9167,217.5938 C311.5267,217.5938 312.8333,216.2871 312.8333,214.6771 C312.8333,213.0671 311.5267,211.7604 309.9167,211.7604 M310.5,212.9271 C311.1417,212.9271 311.6667,213.4521 311.6667,214.0938 C311.6667,214.7354 311.1417,215.2604 310.5,215.2604 C309.8583,215.2604 309.3333,214.7354 309.3333,214.0938 C309.3333,213.4521 309.8583,212.9271 310.5,212.9271" fill="#D32F2F"/><text fill="#000000" font-family="sans-serif" font-size="14" font-weight="bold" lengthAdjust="spacing" textLength="14.8203" x="318.7074" y="221.292">id</text><text fill="#000000" font-family="sans-serif" font-size="14" lengthAdjust="spacing" textLength="58.1328" x="337.9779" y="221.292">: SERIAL</text><text fill="#000000" font-family="sans-serif" font-size="14" lengthAdjust="spacing" textLength="142.6934" x="302.5" y="237.5889">is_active : BOOLEAN</text><text fill="#000000" font-family="sans-serif" font-size="14" lengthAdjust="spacing" textLength="169.4629" x="302.5" y="253.8857">created_at : TIMESTAMP</text><text fill="#000000" font-family="sans-serif" font-size="14" lengthAdjust="spacing" textLength="174.043" x="302.5" y="270.1826">updated_at : TIMESTAMP</text><line style="stroke:#181818;stroke-width:0.5;" x1="297.5" x2="534.583" y1="277.4844" y2="277.4844"/><text fill="#000000" font-family="sans-serif" font-size="14" lengthAdjust="spacing" textLength="158.3613" x="306.9502" y="294.4795">email : VARCHAR(320)</text><text fill="#000000" font-family="sans-serif" font-size="14" lengthAdjust="spacing" textLength="227.083" x="302.5" y="310.7764">password_hash : VARCHAR(255)</text><text fill="#000000" font-family="sans-serif" font-size="14" lengthAdjust="spacing" textLength="193.8125" x="302.5" y="327.0732">first_name : VARCHAR(100)</text><text fill="#000000" font-family="sans-serif" font-size="14" lengthAdjust="spacing" textLength="191.707" x="302.5" y="343.3701">last_name : VARCHAR(100)</text><text fill="#000000" font-family="sans-serif" font-size="14" lengthAdjust="spacing" textLength="137.6689" x="302.5" y="359.667">role : VARCHAR(20)</text><text fill="#000000" font-family="sans-serif" font-size="14" lengthAdjust="spacing" textLength="202.5762" x="302.5" y="375.9639">department : VARCHAR(100)</text></g><!--class form_templates--><g class="entity" data-entity="form_templates" data-source-line="35" data-uid="ent0003" id="entity_form_templates"><rect fill="#F1F1F1" height="194.6719" rx="2.5" ry="2.5" style="stroke:#181818;stroke-width:0.5;" width="229.2461" x="460.5" y="460.2969"/><ellipse cx="515.6831" cy="476.2969" fill="#E3F2FD" rx="11" ry="11" style="stroke:#181818;stroke-width:1;"/><path d="M516.5269,483.0469 L514.0737,483.0469 L514.0737,472.7969 L510.9331,472.7969 L510.9331,470.6563 L519.6675,470.6563 L519.6675,472.7969 L516.5269,472.7969 L516.5269,483.0469 Z " fill="#000000"/><text fill="#000000" font-family="sans-serif" font-size="14" lengthAdjust="spacing" textLength="110.3799" x="536.1831" y="481.1436">form_templates</text><line style="stroke:#181818;stroke-width:0.5;" x1="461.5" x2="688.7461" y1="492.2969" y2="492.2969"/><path d="M473.9167,499.7604 C472.3067,499.7604 471,501.0671 471,502.6771 C471,502.8638 471,503.0504 471.035,503.2254 L467.5,506.7604 L467.5,509.0938 L471,509.0938 L471,506.7604 L473.3333,506.7604 L473.3333,505.5938 L473.3683,505.5588 C473.5433,505.5938 473.73,505.5938 473.9167,505.5938 C475.5267,505.5938 476.8333,504.2871 476.8333,502.6771 C476.8333,501.0671 475.5267,499.7604 473.9167,499.7604 M474.5,500.9271 C475.1417,500.9271 475.6667,501.4521 475.6667,502.0938 C475.6667,502.7354 475.1417,503.2604 474.5,503.2604 C473.8583,503.2604 473.3333,502.7354 473.3333,502.0938 C473.3333,501.4521 473.8583,500.9271 474.5,500.9271" fill="#D32F2F"/><text fill="#000000" font-family="sans-serif" font-size="14" font-weight="bold" lengthAdjust="spacing" textLength="14.8203" x="482.7074" y="509.292">id</text><text fill="#000000" font-family="sans-serif" font-size="14" lengthAdjust="spacing" textLength="58.1328" x="501.9779" y="509.292">: SERIAL</text><text fill="#000000" font-family="sans-serif" font-size="14" lengthAdjust="spacing" textLength="126.998" x="466.5" y="525.5889">description : TEXT</text><text fill="#000000" font-family="sans-serif" font-size="14" lengthAdjust="spacing" textLength="95.2314" x="466.5" y="541.8857">fields : JSONB</text><path d="M474.36,548.686 C474.15,548.6977 473.94,548.721 473.7417,548.791 C473.4267,548.9077 473.1233,549.0827 472.8667,549.3394 A0.5833,0.5833 0 1 0 473.6717,550.1444 C473.8,550.016 473.9517,549.946 474.115,549.8877 C474.5233,549.7477 475.025,549.806 475.3517,550.1444 C475.8067,550.5994 475.8067,551.3577 475.3517,551.8244 L473.6017,553.5744 C473.0883,554.0877 472.6683,554.1344 472.365,554.1227 C472.0617,554.111 471.8867,553.971 471.8867,553.971 A0.5833,0.5833 0 1 0 471.3033,554.9977 C471.7,555.2544 471.7,555.2544 472.2833,555.2894 C472.8667,555.3244 473.6833,555.1027 474.395,554.3794 L476.145,552.6294 C477.055,551.7194 477.055,550.2494 476.145,549.351 C475.8183,549.0244 475.4333,548.826 475.0133,548.7327 C474.8033,548.686 474.57,548.686 474.36,548.6977 M472.0267,551.381 C471.4433,551.3577 470.6383,551.556 469.95,552.256 L468.2,554.006 C467.29,554.916 467.29,556.386 468.2,557.2844 C468.8533,557.9377 469.7867,558.1244 470.6033,557.8327 C470.9183,557.716 471.2217,557.541 471.4783,557.2844 A0.5833,0.5833 0 1 0 470.6733,556.4794 C470.545,556.6077 470.3933,556.6777 470.23,556.736 C469.8217,556.876 469.32,556.8177 468.9933,556.4794 C468.5383,556.0244 468.5383,555.266 468.9933,554.7994 L470.7433,553.0494 C471.21,552.5827 471.6183,552.5244 471.945,552.536 C472.2717,552.5477 472.4933,552.641 472.4933,552.641 A0.5833,0.5833 0 1 0 473.0067,551.6144 C472.61,551.381 472.61,551.381 472.0267,551.3577" fill="#1976D2"/><text fill="#000000" font-family="sans-serif" font-size="14" lengthAdjust="spacing" textLength="152.8447" x="482.2835" y="558.1826">created_by : INTEGER</text><text fill="#000000" font-family="sans-serif" font-size="14" lengthAdjust="spacing" textLength="142.6934" x="466.5" y="574.4795">is_active : BOOLEAN</text><text fill="#000000" font-family="sans-serif" font-size="14" lengthAdjust="spacing" textLength="217.2461" x="466.5" y="590.7764">max_audio_duration : INTEGER</text><text fill="#000000" font-family="sans-serif" font-size="14" lengthAdjust="spacing" textLength="169.4629" x="466.5" y="607.0732">created_at : TIMESTAMP</text><text fill="#000000" font-family="sans-serif" font-size="14" lengthAdjust="spacing" textLength="174.043" x="466.5" y="623.3701">updated_at : TIMESTAMP</text><line style="stroke:#181818;stroke-width:0.5;" x1="461.5" x2="688.7461" y1="630.6719" y2="630.6719"/><text fill="#000000" font-family="sans-serif" font-size="14" lengthAdjust="spacing" textLength="159.4551" x="466.5" y="647.667">name : VARCHAR(255)</text></g><!--class user_form_assignments--><g class="entity" data-entity="user_form_assignments" data-source-line="47" data-uid="ent0004" id="entity_user_form_assignments"><rect fill="#F1F1F1" height="145.7813" rx="2.5" ry="2.5" style="stroke:#181818;stroke-width:0.5;" width="224.5225" x="231.5" y="841.7969"/><ellipse cx="258.3688" cy="857.7969" fill="#E3F2FD" rx="11" ry="11" style="stroke:#181818;stroke-width:1;"/><path d="M259.2125,864.5469 L256.7594,864.5469 L256.7594,854.2969 L253.6187,854.2969 L253.6187,852.1563 L262.3531,852.1563 L262.3531,854.2969 L259.2125,854.2969 L259.2125,864.5469 Z " fill="#000000"/><text fill="#000000" font-family="sans-serif" font-size="14" lengthAdjust="spacing" textLength="166.1475" x="275.0063" y="862.6436">user_form_assignments</text><line style="stroke:#181818;stroke-width:0.5;" x1="232.5" x2="455.0225" y1="873.7969" y2="873.7969"/><path d="M244.9167,881.2604 C243.3067,881.2604 242,882.5671 242,884.1771 C242,884.3638 242,884.5504 242.035,884.7254 L238.5,888.2604 L238.5,890.5938 L242,890.5938 L242,888.2604 L244.3333,888.2604 L244.3333,887.0938 L244.3683,887.0587 C244.5433,887.0938 244.73,887.0938 244.9167,887.0938 C246.5267,887.0938 247.8333,885.7871 247.8333,884.1771 C247.8333,882.5671 246.5267,881.2604 244.9167,881.2604 M245.5,882.4271 C246.1417,882.4271 246.6667,882.9521 246.6667,883.5938 C246.6667,884.2354 246.1417,884.7604 245.5,884.7604 C244.8583,884.7604 244.3333,884.2354 244.3333,883.5938 C244.3333,882.9521 244.8583,882.4271 245.5,882.4271" fill="#D32F2F"/><text fill="#000000" font-family="sans-serif" font-size="14" font-weight="bold" lengthAdjust="spacing" textLength="14.8203" x="253.7074" y="890.792">id</text><text fill="#000000" font-family="sans-serif" font-size="14" lengthAdjust="spacing" textLength="58.1328" x="272.9779" y="890.792">: SERIAL</text><path d="M245.36,897.5923 C245.15,897.604 244.94,897.6273 244.7417,897.6973 C244.4267,897.814 244.1233,897.989 243.8667,898.2456 A0.5833,0.5833 0 1 0 244.6717,899.0506 C244.8,898.9223 244.9517,898.8523 245.115,898.794 C245.5233,898.654 246.025,898.7123 246.3517,899.0506 C246.8067,899.5056 246.8067,900.264 246.3517,900.7306 L244.6017,902.4806 C244.0883,902.994 243.6683,903.0406 243.365,903.029 C243.0617,903.0173 242.8867,902.8773 242.8867,902.8773 A0.5833,0.5833 0 1 0 242.3033,903.904 C242.7,904.1606 242.7,904.1606 243.2833,904.1956 C243.8667,904.2306 244.6833,904.009 245.395,903.2856 L247.145,901.5356 C248.055,900.6256 248.055,899.1556 247.145,898.2573 C246.8183,897.9306 246.4333,897.7323 246.0133,897.639 C245.8033,897.5923 245.57,897.5923 245.36,897.604 M243.0267,900.2873 C242.4433,900.264 241.6383,900.4623 240.95,901.1623 L239.2,902.9123 C238.29,903.8223 238.29,905.2923 239.2,906.1906 C239.8533,906.844 240.7867,907.0306 241.6033,906.739 C241.9183,906.6223 242.2217,906.4473 242.4783,906.1906 A0.5833,0.5833 0 1 0 241.6733,905.3856 C241.545,905.514 241.3933,905.584 241.23,905.6423 C240.8217,905.7823 240.32,905.724 239.9933,905.3856 C239.5383,904.9306 239.5383,904.1723 239.9933,903.7056 L241.7433,901.9556 C242.21,901.489 242.6183,901.4306 242.945,901.4423 C243.2717,901.454 243.4933,901.5473 243.4933,901.5473 A0.5833,0.5833 0 1 0 244.0067,900.5206 C243.61,900.2873 243.61,900.2873 243.0267,900.264" fill="#1976D2"/><text fill="#000000" font-family="sans-serif" font-size="14" lengthAdjust="spacing" textLength="125.3506" x="253.2835" y="907.0889">user_id : INTEGER</text><path d="M245.36,913.8892 C245.15,913.9008 244.94,913.9242 244.7417,913.9942 C244.4267,914.1108 244.1233,914.2858 243.8667,914.5425 A0.5833,0.5833 0 1 0 244.6717,915.3475 C244.8,915.2192 244.9517,915.1492 245.115,915.0908 C245.5233,914.9508 246.025,915.0092 246.3517,915.3475 C246.8067,915.8025 246.8067,916.5608 246.3517,917.0275 L244.6017,918.7775 C244.0883,919.2908 243.6683,919.3375 243.365,919.3258 C243.0617,919.3142 242.8867,919.1742 242.8867,919.1742 A0.5833,0.5833 0 1 0 242.3033,920.2008 C242.7,920.4575 242.7,920.4575 243.2833,920.4925 C243.8667,920.5275 244.6833,920.3058 245.395,919.5825 L247.145,917.8325 C248.055,916.9225 248.055,915.4525 247.145,914.5542 C246.8183,914.2275 246.4333,914.0292 246.0133,913.9358 C245.8033,913.8892 245.57,913.8892 245.36,913.9008 M243.0267,916.5842 C242.4433,916.5608 241.6383,916.7592 240.95,917.4592 L239.2,919.2092 C238.29,920.1192 238.29,921.5892 239.2,922.4875 C239.8533,923.1408 240.7867,923.3275 241.6033,923.0358 C241.9183,922.9192 242.2217,922.7442 242.4783,922.4875 A0.5833,0.5833 0 1 0 241.6733,921.6825 C241.545,921.8108 241.3933,921.8808 241.23,921.9392 C240.8217,922.0792 240.32,922.0208 239.9933,921.6825 C239.5383,921.2275 239.5383,920.4692 239.9933,920.0025 L241.7433,918.2525 C242.21,917.7858 242.6183,917.7275 242.945,917.7392 C243.2717,917.7508 243.4933,917.8442 243.4933,917.8442 A0.5833,0.5833 0 1 0 244.0067,916.8175 C243.61,916.5842 243.61,916.5842 243.0267,916.5608" fill="#1976D2"/><text fill="#000000" font-family="sans-serif" font-size="14" lengthAdjust="spacing" textLength="158.0127" x="253.2835" y="923.3857">template_id : INTEGER</text><path d="M245.36,930.186 C245.15,930.1977 244.94,930.221 244.7417,930.291 C244.4267,930.4077 244.1233,930.5827 243.8667,930.8394 A0.5833,0.5833 0 1 0 244.6717,931.6444 C244.8,931.516 244.9517,931.446 245.115,931.3877 C245.5233,931.2477 246.025,931.306 246.3517,931.6444 C246.8067,932.0994 246.8067,932.8577 246.3517,933.3244 L244.6017,935.0744 C244.0883,935.5877 243.6683,935.6344 243.365,935.6227 C243.0617,935.611 242.8867,935.471 242.8867,935.471 A0.5833,0.5833 0 1 0 242.3033,936.4977 C242.7,936.7544 242.7,936.7544 243.2833,936.7894 C243.8667,936.8244 244.6833,936.6027 245.395,935.8794 L247.145,934.1294 C248.055,933.2194 248.055,931.7494 247.145,930.851 C246.8183,930.5244 246.4333,930.326 246.0133,930.2327 C245.8033,930.186 245.57,930.186 245.36,930.1977 M243.0267,932.881 C242.4433,932.8577 241.6383,933.056 240.95,933.756 L239.2,935.506 C238.29,936.416 238.29,937.886 239.2,938.7844 C239.8533,939.4377 240.7867,939.6244 241.6033,939.3327 C241.9183,939.216 242.2217,939.041 242.4783,938.7844 A0.5833,0.5833 0 1 0 241.6733,937.9794 C241.545,938.1077 241.3933,938.1777 241.23,938.236 C240.8217,938.376 240.32,938.3177 239.9933,937.9794 C239.5383,937.5244 239.5383,936.766 239.9933,936.2994 L241.7433,934.5494 C242.21,934.0827 242.6183,934.0244 242.945,934.036 C243.2717,934.0477 243.4933,934.141 243.4933,934.141 A0.5833,0.5833 0 1 0 244.0067,933.1144 C243.61,932.881 243.61,932.881 243.0267,932.8577" fill="#1976D2"/><text fill="#000000" font-family="sans-serif" font-size="14" lengthAdjust="spacing" textLength="161.5264" x="253.2835" y="939.6826">assigned_by : INTEGER</text><text fill="#000000" font-family="sans-serif" font-size="14" lengthAdjust="spacing" textLength="178.1445" x="237.5" y="955.9795">assigned_at : TIMESTAMP</text><line style="stroke:#181818;stroke-width:1;" x1="232.5" x2="455.0225" y1="963.2813" y2="963.2813"/><text fill="#000000" font-family="sans-serif" font-size="14" lengthAdjust="spacing" textLength="208.0723" x="241.9502" y="980.2764">UNIQUE(user_id, template_id)</text></g><!--class audio_submissions--><g class="entity" data-entity="audio_submissions" data-source-line="57" data-uid="ent0005" id="entity_audio_submissions"><rect fill="#F1F1F1" height="365.3438" rx="2.5" ry="2.5" style="stroke:#181818;stroke-width:0.5;" width="243.3555" x="571.5" y="732.2969"/><ellipse cx="623.1353" cy="748.2969" fill="#E3F2FD" rx="11" ry="11" style="stroke:#181818;stroke-width:1;"/><path d="M623.979,755.0469 L621.5259,755.0469 L621.5259,744.7969 L618.3853,744.7969 L618.3853,742.6563 L627.1196,742.6563 L627.1196,744.7969 L623.979,744.7969 L623.979,755.0469 Z " fill="#000000"/><text fill="#000000" font-family="sans-serif" font-size="14" lengthAdjust="spacing" textLength="131.585" x="643.6353" y="753.1436">audio_submissions</text><line style="stroke:#181818;stroke-width:0.5;" x1="572.5" x2="813.8555" y1="764.2969" y2="764.2969"/><path d="M584.9167,771.7604 C583.3067,771.7604 582,773.0671 582,774.6771 C582,774.8638 582,775.0504 582.035,775.2254 L578.5,778.7604 L578.5,781.0938 L582,781.0938 L582,778.7604 L584.3333,778.7604 L584.3333,777.5938 L584.3683,777.5587 C584.5433,777.5938 584.73,777.5938 584.9167,777.5938 C586.5267,777.5938 587.8333,776.2871 587.8333,774.6771 C587.8333,773.0671 586.5267,771.7604 584.9167,771.7604 M585.5,772.9271 C586.1417,772.9271 586.6667,773.4521 586.6667,774.0938 C586.6667,774.7354 586.1417,775.2604 585.5,775.2604 C584.8583,775.2604 584.3333,774.7354 584.3333,774.0938 C584.3333,773.4521 584.8583,772.9271 585.5,772.9271" fill="#D32F2F"/><text fill="#000000" font-family="sans-serif" font-size="14" font-weight="bold" lengthAdjust="spacing" textLength="14.8203" x="593.7074" y="781.292">id</text><text fill="#000000" font-family="sans-serif" font-size="14" lengthAdjust="spacing" textLength="58.1328" x="612.9779" y="781.292">: SERIAL</text><path d="M585.36,788.0923 C585.15,788.104 584.94,788.1273 584.7417,788.1973 C584.4267,788.314 584.1233,788.489 583.8667,788.7456 A0.5833,0.5833 0 1 0 584.6717,789.5506 C584.8,789.4223 584.9517,789.3523 585.115,789.294 C585.5233,789.154 586.025,789.2123 586.3517,789.5506 C586.8067,790.0056 586.8067,790.764 586.3517,791.2306 L584.6017,792.9806 C584.0883,793.494 583.6683,793.5406 583.365,793.529 C583.0617,793.5173 582.8867,793.3773 582.8867,793.3773 A0.5833,0.5833 0 1 0 582.3033,794.404 C582.7,794.6606 582.7,794.6606 583.2833,794.6956 C583.8667,794.7306 584.6833,794.509 585.395,793.7856 L587.145,792.0356 C588.055,791.1256 588.055,789.6556 587.145,788.7573 C586.8183,788.4306 586.4333,788.2323 586.0133,788.139 C585.8033,788.0923 585.57,788.0923 585.36,788.104 M583.0267,790.7873 C582.4433,790.764 581.6383,790.9623 580.95,791.6623 L579.2,793.4123 C578.29,794.3223 578.29,795.7923 579.2,796.6906 C579.8533,797.344 580.7867,797.5306 581.6033,797.239 C581.9183,797.1223 582.2217,796.9473 582.4783,796.6906 A0.5833,0.5833 0 1 0 581.6733,795.8856 C581.545,796.014 581.3933,796.084 581.23,796.1423 C580.8217,796.2823 580.32,796.224 579.9933,795.8856 C579.5383,795.4306 579.5383,794.6723 579.9933,794.2056 L581.7433,792.4556 C582.21,791.989 582.6183,791.9306 582.945,791.9423 C583.2717,791.954 583.4933,792.0473 583.4933,792.0473 A0.5833,0.5833 0 1 0 584.0067,791.0206 C583.61,790.7873 583.61,790.7873 583.0267,790.764" fill="#1976D2"/><text fill="#000000" font-family="sans-serif" font-size="14" lengthAdjust="spacing" textLength="125.3506" x="593.2835" y="797.5889">user_id : INTEGER</text><path d="M585.36,804.3892 C585.15,804.4008 584.94,804.4242 584.7417,804.4942 C584.4267,804.6108 584.1233,804.7858 583.8667,805.0425 A0.5833,0.5833 0 1 0 584.6717,805.8475 C584.8,805.7192 584.9517,805.6492 585.115,805.5908 C585.5233,805.4508 586.025,805.5092 586.3517,805.8475 C586.8067,806.3025 586.8067,807.0608 586.3517,807.5275 L584.6017,809.2775 C584.0883,809.7908 583.6683,809.8375 583.365,809.8258 C583.0617,809.8142 582.8867,809.6742 582.8867,809.6742 A0.5833,0.5833 0 1 0 582.3033,810.7008 C582.7,810.9575 582.7,810.9575 583.2833,810.9925 C583.8667,811.0275 584.6833,810.8058 585.395,810.0825 L587.145,808.3325 C588.055,807.4225 588.055,805.9525 587.145,805.0542 C586.8183,804.7275 586.4333,804.5292 586.0133,804.4358 C585.8033,804.3892 585.57,804.3892 585.36,804.4008 M583.0267,807.0842 C582.4433,807.0608 581.6383,807.2592 580.95,807.9592 L579.2,809.7092 C578.29,810.6192 578.29,812.0892 579.2,812.9875 C579.8533,813.6408 580.7867,813.8275 581.6033,813.5358 C581.9183,813.4192 582.2217,813.2442 582.4783,812.9875 A0.5833,0.5833 0 1 0 581.6733,812.1825 C581.545,812.3108 581.3933,812.3808 581.23,812.4392 C580.8217,812.5792 580.32,812.5208 579.9933,812.1825 C579.5383,811.7275 579.5383,810.9692 579.9933,810.5025 L581.7433,808.7525 C582.21,808.2858 582.6183,808.2275 582.945,808.2392 C583.2717,808.2508 583.4933,808.3442 583.4933,808.3442 A0.5833,0.5833 0 1 0 584.0067,807.3175 C583.61,807.0842 583.61,807.0842 583.0267,807.0608" fill="#1976D2"/><text fill="#000000" font-family="sans-serif" font-size="14" lengthAdjust="spacing" textLength="158.0127" x="593.2835" y="813.8857">template_id : INTEGER</text><line style="stroke:#181818;stroke-width:1;" x1="572.5" x2="813.8555" y1="821.1875" y2="821.1875"/><line style="stroke:#181818;stroke-width:1;" x1="572.5" x2="813.8555" y1="823.1875" y2="823.1875"/><text fill="#000000" font-family="sans-serif" font-size="14" lengthAdjust="spacing" textLength="173.0791" x="577.5" y="838.1826">file_key : VARCHAR(500)</text><text fill="#000000" font-family="sans-serif" font-size="14" lengthAdjust="spacing" textLength="116.8193" x="577.5" y="854.4795">file_size : BIGINT</text><text fill="#000000" font-family="sans-serif" font-size="14" lengthAdjust="spacing" textLength="186.1221" x="577.5" y="870.7764">file_format : VARCHAR(10)</text><text fill="#000000" font-family="sans-serif" font-size="14" lengthAdjust="spacing" textLength="198.1738" x="577.5" y="887.0732">duration_seconds : INTEGER</text><line style="stroke:#181818;stroke-width:1;" x1="572.5" x2="813.8555" y1="894.375" y2="894.375"/><line style="stroke:#181818;stroke-width:1;" x1="572.5" x2="813.8555" y1="896.375" y2="896.375"/><text fill="#000000" font-family="sans-serif" font-size="14" lengthAdjust="spacing" textLength="153.8633" x="577.5" y="911.3701">status : VARCHAR(20)</text><text fill="#000000" font-family="sans-serif" font-size="14" lengthAdjust="spacing" textLength="155.4355" x="577.5" y="927.667">retry_count : INTEGER</text><text fill="#000000" font-family="sans-serif" font-size="14" lengthAdjust="spacing" textLength="153.5215" x="577.5" y="943.9639">error_message : TEXT</text><line style="stroke:#181818;stroke-width:1;" x1="572.5" x2="813.8555" y1="951.2656" y2="951.2656"/><line style="stroke:#181818;stroke-width:1;" x1="572.5" x2="813.8555" y1="953.2656" y2="953.2656"/><text fill="#000000" font-family="sans-serif" font-size="14" lengthAdjust="spacing" textLength="116.8672" x="577.5" y="968.2607">transcript : TEXT</text><text fill="#000000" font-family="sans-serif" font-size="14" lengthAdjust="spacing" textLength="231.3555" x="577.5" y="984.5576">confidence_score : DECIMAL(3,2)</text><text fill="#000000" font-family="sans-serif" font-size="14" lengthAdjust="spacing" textLength="163.6729" x="577.5" y="1000.8545">extracted_data : JSONB</text><text fill="#000000" font-family="sans-serif" font-size="14" lengthAdjust="spacing" textLength="90.3301" x="577.5" y="1017.1514">tags : TEXT[]</text><line style="stroke:#181818;stroke-width:1;" x1="572.5" x2="813.8555" y1="1024.4531" y2="1024.4531"/><line style="stroke:#181818;stroke-width:1;" x1="572.5" x2="813.8555" y1="1026.4531" y2="1026.4531"/><text fill="#000000" font-family="sans-serif" font-size="14" lengthAdjust="spacing" textLength="186.8877" x="577.5" y="1041.4482">submitted_at : TIMESTAMP</text><text fill="#000000" font-family="sans-serif" font-size="14" lengthAdjust="spacing" textLength="187.4346" x="577.5" y="1057.7451">processed_at : TIMESTAMP</text><text fill="#000000" font-family="sans-serif" font-size="14" lengthAdjust="spacing" textLength="169.4629" x="577.5" y="1074.042">created_at : TIMESTAMP</text><text fill="#000000" font-family="sans-serif" font-size="14" lengthAdjust="spacing" textLength="174.043" x="577.5" y="1090.3389">updated_at : TIMESTAMP</text></g><g class="entity" data-entity="N1" data-source-line="93" data-uid="ent0012" id="entity_N1"><path d="M559.5,43.2969 L559.5,111.5 L786.4912,111.5 L786.4912,53.2969 L776.4912,43.2969 L559.5,43.2969" fill="#E8F5E8" style="stroke:#4CAF50;stroke-width:0.5;"/><path d="M776.4912,43.2969 L776.4912,53.2969 L786.4912,53.2969 L776.4912,43.2969" fill="#E8F5E8" style="stroke:#4CAF50;stroke-width:1;"/><text fill="#2E7D32" font-family="sans-serif" font-size="10" font-weight="bold" lengthAdjust="spacing" textLength="97.8369" x="565.5" y="57.5791">System Overview</text><text fill="#2E7D32" font-family="sans-serif" font-size="10" lengthAdjust="spacing" textLength="205.9912" x="565.5" y="69.2197">&#8226; 4 core tables for audio form processing</text><text fill="#2E7D32" font-family="sans-serif" font-size="10" lengthAdjust="spacing" textLength="196.7871" x="565.5" y="80.8604">&#8226; Role-based access (admin/employee)</text><text fill="#2E7D32" font-family="sans-serif" font-size="10" lengthAdjust="spacing" textLength="191.4844" x="565.5" y="92.501">&#8226; Flexible JSON-based form definitions</text><text fill="#2E7D32" font-family="sans-serif" font-size="10" lengthAdjust="spacing" textLength="188.3008" x="565.5" y="104.1416">&#8226; Complete audio processing pipeline</text></g><g class="entity" data-entity="GMN13" data-source-line="101" data-uid="ent0014" id="entity_GMN13"><path d="M308,48.7969 L308,105.3594 A0,0 0 0 0 308,105.3594 L412,105.3594 L416,171.9269 L420,105.3594 L523.8486,105.3594 A0,0 0 0 0 523.8486,105.3594 L523.8486,58.7969 L513.8486,48.7969 L308,48.7969 A0,0 0 0 0 308,48.7969" fill="#E8F5E8" style="stroke:#4CAF50;stroke-width:0.5;"/><path d="M513.8486,48.7969 L513.8486,58.7969 L523.8486,58.7969 L513.8486,48.7969" fill="#E8F5E8" style="stroke:#4CAF50;stroke-width:0.5;"/><text fill="#2E7D32" font-family="sans-serif" font-size="10" font-weight="bold" lengthAdjust="spacing" textLength="78.1543" x="314" y="63.0791">Users &amp; Roles</text><text fill="#2E7D32" font-family="sans-serif" font-size="10" lengthAdjust="spacing" textLength="194.8486" x="314" y="74.7197">&#8226; Admins: Create &amp; manage templates</text><text fill="#2E7D32" font-family="sans-serif" font-size="10" lengthAdjust="spacing" textLength="190.752" x="314" y="86.3604">&#8226; Employees: Submit audio responses</text><text fill="#2E7D32" font-family="sans-serif" font-size="10" lengthAdjust="spacing" textLength="168.916" x="314" y="98.001">&#8226; Department-based organization</text></g><g class="entity" data-entity="GMN16" data-source-line="108" data-uid="ent0017" id="entity_GMN16"><path d="M848,523.7969 L848,592 L1034.0195,592 L1034.0195,533.7969 L1024.0195,523.7969 L848,523.7969" fill="#E8F5E8" style="stroke:#4CAF50;stroke-width:0.5;"/><path d="M1024.0195,523.7969 L1024.0195,533.7969 L1034.0195,533.7969 L1024.0195,523.7969" fill="#E8F5E8" style="stroke:#4CAF50;stroke-width:1;"/><text fill="#2E7D32" font-family="sans-serif" font-size="10" font-weight="bold" lengthAdjust="spacing" textLength="86.9482" x="854" y="538.0791">Dynamic Forms</text><text fill="#2E7D32" font-family="sans-serif" font-size="10" lengthAdjust="spacing" textLength="113.9404" x="854" y="549.7197">&#8226; JSON field definitions</text><text fill="#2E7D32" font-family="sans-serif" font-size="10" lengthAdjust="spacing" textLength="120.7861" x="854" y="561.3604">&#8226; Reusable across users</text><text fill="#2E7D32" font-family="sans-serif" font-size="10" lengthAdjust="spacing" textLength="113.1445" x="854" y="573.001">&#8226; Audio duration limits</text><text fill="#2E7D32" font-family="sans-serif" font-size="10" lengthAdjust="spacing" textLength="165.0195" x="854" y="584.6416">&#8226; Version control via timestamps</text></g><g class="entity" data-entity="GMN19" data-source-line="116" data-uid="ent0020" id="entity_GMN19"><path d="M532.5,1158.2969 L532.5,1238.1406 A0,0 0 0 0 532.5,1238.1406 L853.4463,1238.1406 A0,0 0 0 0 853.4463,1238.1406 L853.4463,1168.2969 L843.4463,1158.2969 L697,1158.2969 L693,1097.6569 L689,1158.2969 L532.5,1158.2969 A0,0 0 0 0 532.5,1158.2969" fill="#E8F5E8" style="stroke:#4CAF50;stroke-width:0.5;"/><path d="M843.4463,1158.2969 L843.4463,1168.2969 L853.4463,1168.2969 L843.4463,1158.2969" fill="#E8F5E8" style="stroke:#4CAF50;stroke-width:0.5;"/><text fill="#2E7D32" font-family="sans-serif" font-size="10" font-weight="bold" lengthAdjust="spacing" textLength="110.3857" x="538.5" y="1172.5791">Processing Pipeline</text><text fill="#2E7D32" font-family="sans-serif" font-size="10" lengthAdjust="spacing" textLength="159.3945" x="538.5" y="1184.2197">&#8226; S3 file references &amp; metadata</text><text fill="#2E7D32" font-family="sans-serif" font-size="10" lengthAdjust="spacing" textLength="299.9463" x="538.5" y="1195.8604">&#8226; Status tracking: pending &#8594; processing &#8594; completed/failed</text><text fill="#2E7D32" font-family="sans-serif" font-size="10" lengthAdjust="spacing" textLength="261.9678" x="538.5" y="1207.501">&#8226; LLM results: transcript, confidence, extracted data</text><text fill="#2E7D32" font-family="sans-serif" font-size="10" lengthAdjust="spacing" textLength="167.9297" x="538.5" y="1219.1416">&#8226; Retry logic for failed processing</text><text fill="#2E7D32" font-family="sans-serif" font-size="10" lengthAdjust="spacing" textLength="111.3574" x="538.5" y="1230.7822">&#8226; Rich tagging system</text></g><g class="entity" data-entity="GMN22" data-source-line="125" data-uid="ent0023" id="entity_GMN22"><path d="M6,880.7969 L6,949 A0,0 0 0 0 6,949 L195.9307,949 A0,0 0 0 0 195.9307,949 L195.9307,918.7969 L231.28,914.7969 L195.9307,910.7969 L195.9307,890.7969 L185.9307,880.7969 L6,880.7969 A0,0 0 0 0 6,880.7969" fill="#E8F5E8" style="stroke:#4CAF50;stroke-width:0.5;"/><path d="M185.9307,880.7969 L185.9307,890.7969 L195.9307,890.7969 L185.9307,880.7969" fill="#E8F5E8" style="stroke:#4CAF50;stroke-width:0.5;"/><text fill="#2E7D32" font-family="sans-serif" font-size="10" font-weight="bold" lengthAdjust="spacing" textLength="99.6875" x="12" y="895.0791">Assignment Logic</text><text fill="#2E7D32" font-family="sans-serif" font-size="10" lengthAdjust="spacing" textLength="143.6475" x="12" y="906.7197">&#8226; Many-to-many relationship</text><text fill="#2E7D32" font-family="sans-serif" font-size="10" lengthAdjust="spacing" textLength="141.1719" x="12" y="918.3604">&#8226; Tracks who assigned what</text><text fill="#2E7D32" font-family="sans-serif" font-size="10" lengthAdjust="spacing" textLength="168.9307" x="12" y="930.001">&#8226; Prevents duplicate assignments</text><text fill="#2E7D32" font-family="sans-serif" font-size="10" lengthAdjust="spacing" textLength="152.7783" x="12" y="941.6416">&#8226; Historical assignment record</text></g><!--link users to form_templates--><g class="link" data-entity-1="users" data-entity-2="form_templates" data-source-line="83" data-uid="lnk6" id="link_users_form_templates"><path codeLine="83" d="M479.8518,390.4413 C494.2018,415.5313 496.55,419.6439 510.69,444.3539" fill="none" id="users-form_templates" style="stroke:#181818;stroke-width:1;"/><line style="stroke:#181818;stroke-width:1;" x1="474.3937" x2="481.3381" y1="388.955" y2="384.9832"/><line style="stroke:#181818;stroke-width:1;" x1="475.8831" x2="482.8275" y1="391.5591" y2="387.5873"/><line style="stroke:#181818;stroke-width:1;" x1="479.8518" x2="475.88" y1="390.4413" y2="383.4969"/><line style="stroke:#181818;stroke-width:1;" x1="515.6567" x2="524.8376" y1="453.0334" y2="456.9969"/><line style="stroke:#181818;stroke-width:1;" x1="515.6567" x2="514.4224" y1="453.0334" y2="462.9569"/><line style="stroke:#181818;stroke-width:1;" x1="515.6567" x2="519.63" y1="453.0334" y2="459.9769"/><ellipse cx="512.6766" cy="447.8257" fill="none" rx="4" ry="4" style="stroke:#181818;stroke-width:1;"/><text fill="#000000" font-family="sans-serif" font-size="13" lengthAdjust="spacing" textLength="48.3247" x="502" y="426.3638">creates</text></g><!--link users to user_form_assignments--><g class="link" data-entity-1="users" data-entity-2="user_form_assignments" data-source-line="84" data-uid="lnk7" id="link_users_user_form_assignments"><path codeLine="84" d="M291.0092,383.0841 C268.8492,407.7141 254.21,429.9169 242,460.2969 C190.09,589.4569 246.1403,734.4998 293.6503,825.7898" fill="none" id="users-user_form_assignments" style="stroke:#181818;stroke-width:1;"/><line style="stroke:#181818;stroke-width:1;" x1="290.711" x2="296.6582" y1="377.4351" y2="382.7859"/><line style="stroke:#181818;stroke-width:1;" x1="288.7045" x2="294.6517" y1="379.6653" y2="385.0161"/><line style="stroke:#181818;stroke-width:1;" x1="291.0092" x2="296.36" y1="383.0841" y2="377.1369"/><line style="stroke:#181818;stroke-width:1;" x1="298.2668" x2="307.2824" y1="834.6604" y2="838.987"/><line style="stroke:#181818;stroke-width:1;" x1="298.2668" x2="296.6376" y1="834.6604" y2="844.5268"/><line style="stroke:#181818;stroke-width:1;" x1="298.2668" x2="301.96" y1="834.6604" y2="841.7569"/><ellipse cx="295.4969" cy="829.338" fill="none" rx="4" ry="4" style="stroke:#181818;stroke-width:1;"/><text fill="#000000" font-family="sans-serif" font-size="13" lengthAdjust="spacing" textLength="57.8652" x="243" y="562.3638">assigned</text></g><!--link users to user_form_assignments--><g class="link" data-entity-1="users" data-entity-2="user_form_assignments" data-source-line="86" data-uid="lnk9" id="link_users_user_form_assignments"><path codeLine="86" d="M377.8454,391.0113 C370.6254,415.9513 366.2,434.9969 362,460.2969 C339.88,593.6069 338.9118,733.8315 340.9518,823.7615" fill="none" id="users-user_form_assignments-1" style="stroke:#181818;stroke-width:1;"/><line style="stroke:#181818;stroke-width:1;" x1="375.1155" x2="382.7999" y1="386.0568" y2="388.2814"/><line style="stroke:#181818;stroke-width:1;" x1="374.2812" x2="381.9657" y1="388.9385" y2="391.1631"/><line style="stroke:#181818;stroke-width:1;" x1="377.8454" x2="380.07" y1="391.0113" y2="383.3269"/><line style="stroke:#181818;stroke-width:1;" x1="341.1786" x2="347.3585" y1="833.7589" y2="841.6208"/><line style="stroke:#181818;stroke-width:1;" x1="341.1786" x2="335.3615" y1="833.7589" y2="841.8929"/><line style="stroke:#181818;stroke-width:1;" x1="341.1786" x2="341.36" y1="833.7589" y2="841.7569"/><ellipse cx="341.0425" cy="827.7605" fill="none" rx="4" ry="4" style="stroke:#181818;stroke-width:1;"/><text fill="#000000" font-family="sans-serif" font-size="13" lengthAdjust="spacing" textLength="48.3882" x="378.7644" y="554.8638">assigns</text><text fill="#000000" font-family="sans-serif" font-size="13" lengthAdjust="spacing" textLength="79.917" x="363" y="569.9966">(admin role)</text></g><!--link users to audio_submissions--><g class="link" data-entity-1="users" data-entity-2="audio_submissions" data-source-line="85" data-uid="lnk8" id="link_users_audio_submissions"><path codeLine="85" d="M542.9087,323.7265 C605.9687,352.4865 670.38,394.3069 707,460.2969 C752.24,541.8269 755.2296,627.1127 742.5896,714.4027" fill="none" id="users-audio_submissions" style="stroke:#181818;stroke-width:1;"/><line style="stroke:#181818;stroke-width:1;" x1="537.6095" x2="540.9292" y1="325.7061" y2="318.4273"/><line style="stroke:#181818;stroke-width:1;" x1="540.3391" x2="543.6587" y1="326.9509" y2="319.6722"/><line style="stroke:#181818;stroke-width:1;" x1="542.9087" x2="535.63" y1="323.7265" y2="320.4069"/><line style="stroke:#181818;stroke-width:1;" x1="741.1565" x2="745.9481" y1="724.2995" y2="733.0767"/><line style="stroke:#181818;stroke-width:1;" x1="741.1565" x2="734.0719" y1="724.2995" y2="731.357"/><line style="stroke:#181818;stroke-width:1;" x1="741.1565" x2="740.01" y1="724.2995" y2="732.2169"/><ellipse cx="742.0163" cy="718.3614" fill="none" rx="4" ry="4" style="stroke:#181818;stroke-width:1;"/><text fill="#000000" font-family="sans-serif" font-size="13" lengthAdjust="spacing" textLength="51.4097" x="748" y="562.3638">submits</text></g><!--link form_templates to user_form_assignments--><g class="link" data-entity-1="form_templates" data-entity-2="user_form_assignments" data-source-line="88" data-uid="lnk10" id="link_form_templates_user_form_assignments"><path codeLine="88" d="M507.8171,662.0425 C469.5471,720.8625 435.6274,772.9898 400.6774,826.6998" fill="none" id="form_templates-user_form_assignments" style="stroke:#181818;stroke-width:1;"/><line style="stroke:#181818;stroke-width:1;" x1="506.6458" x2="513.3514" y1="656.5082" y2="660.8711"/><line style="stroke:#181818;stroke-width:1;" x1="505.0097" x2="511.7153" y1="659.0229" y2="663.3857"/><line style="stroke:#181818;stroke-width:1;" x1="507.8171" x2="512.18" y1="662.0425" y2="655.3369"/><line style="stroke:#181818;stroke-width:1;" x1="395.2233" x2="395.889" y1="835.0815" y2="845.0593"/><line style="stroke:#181818;stroke-width:1;" x1="395.2233" x2="385.831" y1="835.0815" y2="838.5144"/><line style="stroke:#181818;stroke-width:1;" x1="395.2233" x2="390.86" y1="835.0815" y2="841.7869"/><ellipse cx="398.4957" cy="830.0525" fill="none" rx="4" ry="4" style="stroke:#181818;stroke-width:1;"/><text fill="#000000" font-family="sans-serif" font-size="13" lengthAdjust="spacing" textLength="47.2456" x="488" y="698.3638">used in</text></g><!--link form_templates to audio_submissions--><g class="link" data-entity-1="form_templates" data-entity-2="audio_submissions" data-source-line="89" data-uid="lnk11" id="link_form_templates_audio_submissions"><path codeLine="89" d="M609.6132,662.9286 C617.5632,686.8486 618.1433,688.5854 626.9633,715.1254" fill="none" id="form_templates-audio_submissions" style="stroke:#181818;stroke-width:1;"/><line style="stroke:#181818;stroke-width:1;" x1="604.5557" x2="612.1474" y1="660.3943" y2="657.8711"/><line style="stroke:#181818;stroke-width:1;" x1="605.5019" x2="613.0936" y1="663.2412" y2="660.718"/><line style="stroke:#181818;stroke-width:1;" x1="609.6132" x2="607.09" y1="662.9286" y2="655.3369"/><line style="stroke:#181818;stroke-width:1;" x1="630.117" x2="638.3338" y1="724.6151" y2="730.3147"/><line style="stroke:#181818;stroke-width:1;" x1="630.117" x2="626.9462" y1="724.6151" y2="734.0991"/><line style="stroke:#181818;stroke-width:1;" x1="630.117" x2="632.64" y1="724.6151" y2="732.2069"/><ellipse cx="628.2248" cy="718.9213" fill="none" rx="4" ry="4" style="stroke:#181818;stroke-width:1;"/><text fill="#000000" font-family="sans-serif" font-size="13" lengthAdjust="spacing" textLength="59.5664" x="620" y="698.3638">based on</text></g><!--link form_templates to GMN16--><g class="link" data-entity-1="form_templates" data-entity-2="GMN16" data-source-line="108" data-uid="lnk18" id="link_form_templates_GMN16"><path d="M668.27,460.0069 C688.49,444.3569 710.94,430.4769 734.5,421.7969 C763.28,411.1969 775.14,410.1369 803.5,421.7969 C853.34,442.2869 894.74,490.5369 918.68,523.6869" fill="none" id="form_templates-GMN16" style="stroke:#181818;stroke-width:1;stroke-dasharray:7.0,7.0;"/></g><!--SRC=[hLRRRY9747sVh-YrfGrOHiQmhBqMYuGDtYMBBm6yYfH4g9cfWPPdkaVT3OQzI7dA1-GJycdx9Qdg6HXkLf9L_629hjkfKwUhvqK0eP301itBRhiWUGn51j8Aks3qWzNhh30uFcnNholNhI9hDBmNMSJzXyAyoEgZHjrNaT8NXq6r4bR2Hltb8omQzHDtsc3p-iae3xfEWxA8qpTdhuCAHaH2FfQ4jDotQv6hg8UDgB1svfVB6CMD1ItCutg8Pnw5JBZcCHjn_t6irLG6LsHbX-5v-2RaQnvPevyznYvtdDqVMPGEG6UdAM8ylLRIPcULrzLAzJmxwujFm4vFlQzhPQIoiBy8d8SrEDykyihdOQsyLGJEaD-D8cKiuc434R2EdAavAx4Mjtp43R2-Fu6OUruwrga1ROeE0avD14LsmVhjNgVPnHCa5rr5H8SVcxshzyrUeLef5z6KS6EU4DbmmirapLofrSWS2ctiqCaajvsMNMZ4dpLf5QsVfgK2GAviZ1FP3H1cYC8GCugwlBlhjfktUEfhu1Q28QU8GUUctHyqR-xHC4s2VOQlIpP2fUEXXJY9qErPMhQmPoq7O7mj4YkKfEJjdmUE1uW2Wxz_xD_TNjACFXIMw4OBojgv7RJVjNlFzXBp-P1F0w66mLJpB7iUzDsjqk27hb-Sf1XBulVPZX6ryq-Fy-fulcHhdotDlAVLbM47Tgc4__x5TNwuxVpqq5wYEcRhCF8cK-BCT1GBhAZa_zhWsxTkm14CSQkjwQ6MIjDP35r776Vd7SOj3ubrlYbc9w1ilaC3lf9EDLl5ZELsQdOkY0Qh5qCVbuVTY06jbHx6O0mVGwv9byfgBbEzvWQi6ee0f8-uVQKffDM-wjmqkuNgSOKgmHpZV98LYekloThoiSaI_VBR2YxnRlUgCz7AHrpxJD-Xw1zO3oB7dPc8nB0dOIVCZu1hvdCT2CaZNEQUstNiovTIINrccrSTCnwaXSt1fj_UUqBkImrl-Uz8ZdnJ9lvZQlEhBF0W5jAjnUA1vsrX_gSqQ0YOa0VFnEr5Iaz4m1G68QkjvKh3dKGlLSRi272ecYNA2E9SoB7dtZ5ksEsfTtJKN-1rZTdT3FHCmDFHaVVjzx_OA-OqXQzGX8aGKWh03MAf1qf5lZrik9H2uJuPMCh42VMW5W15vtOTmLnWEYV3pD-bSny73fnnZbSAuu0Wkf9vDPQ81F0J0poGWUlHItknAc4gTDmQREd1pUsb0sQoXfg4o5omAwSRDCPSqaLR4UsysXbYTEmx5MGOD9W4uMLUhTKRbxMXz9XBySc9UXkR5kE99NIRSqMOhGM-JSB7Bm4TBs4ID-axj4DB3wQ6ne4aQuKafzswtXp6rOiJ2PAlitn45ph2PM5HbsmcEBC2bupbSMAseOwKjIech3jgGxZt-HpkipbaeFjLjogHfH0qRIGYFmRBQU-a7kakf7s4NrFZ2vPWQShqxOy_rmTCF_ri_C59Y5yp4BW4tUuD3M4QMHnDlWwFrzRWSRxmsAfmZxOjYzGOUIOLfobt52py2Mt5CM4mxa9iSnD1Q9SQsxc_o4vpzOjrgLf6pGsNYv9L9LJR0Xl8zvwp3eWFlASJjNfayGUtpdYlOUQMGp1D8k5pTsVpakJoNXYhDDgYDHEMmRiRh1hu6m00]--></g></svg>